<?xml version="1.0" encoding="utf-8"?>
<!-- Generator: Adobe Illustrator 22.1.0, SVG Export Plug-In . SVG Version: 6.00 Build 0)  -->
<svg version="1.1" id="Layer_1" xmlns="http://www.w3.org/2000/svg" xmlns:xlink="http://www.w3.org/1999/xlink" x="0px" y="0px"
	 viewBox="0 0 370.5 83.9" style="enable-background:new 0 0 370.5 83.9;" xml:space="preserve">
<style type="text/css">
	.st0{fill:#3B5998;}
	.st1{fill:#FFFFFF;}
	.st2{fill:#A3D2D8;stroke:#002A3F;stroke-miterlimit:10;}
</style>
<path class="st0" d="M55.1,83.9h299c9.1,0,16.4-7.3,16.4-16.4V25.3c0-9.1-7.3-16.4-16.4-16.4h-299c-9.1,0-16.4,7.3-16.4,16.4v42.2
	C38.7,76.6,46,83.9,55.1,83.9z"/>
<circle class="st1" cx="38.7" cy="42.3" r="29"/>
<g>
	<g>
		<path class="st2" d="M11.3,66C24,78.7,43.4,80.7,58.2,72l0.1-0.1c5.8,4.4,12.1,5.2,16.4,4.5c1.4-0.2,1.8-2.2,0.4-2.8
			c-4-2-6.5-5.9-8-9l0.4-0.3c13.5-15.2,12.9-38.4-1.6-53c-15.1-15.1-39.6-15.1-54.7,0C-3.8,26.4-3.8,50.9,11.3,66z M25.9,51.1
			c1.5-1.5,3-3,4.5-4.5c1.2-1.2,2.8-1.2,4,0c0.9,0.9,1.9,1.9,2.8,2.8c0.2,0.3,0.5,0.3,0.8,0.1c0.6-0.3,1.3-0.6,1.8-1
			c2.7-1.7,5-3.9,7-6.4c1-1.2,1.9-2.5,2.5-4c0.1-0.3,0.1-0.5-0.1-0.7c-0.9-0.9-1.9-1.8-2.8-2.8c-1.3-1.3-1.3-2.8,0-4.1
			c0.7-0.7,1.5-1.5,2.2-2.2c0.8-0.8,1.5-1.5,2.3-2.3c1.2-1.2,2.8-1.2,4,0c0.9,0.9,1.8,1.9,2.8,2.8c0.9,0.9,1.3,1.9,1.4,3.1
			c0.1,2-0.3,3.8-1,5.6c-1.4,3.7-3.5,7.1-6.1,10.1c-3.5,4.1-7.6,7.4-12.4,9.7c-2.2,1.1-4.4,1.9-6.9,2c-1.7,0.1-3.2-0.3-4.3-1.6
			c-0.8-0.9-1.7-1.7-2.6-2.6C24.7,53.9,24.7,52.4,25.9,51.1z M33.4,33.6c-1.8,1.8-2.9,4-3.3,6.4l-3.4-0.6c0.5-3.1,2-6,4.3-8.2
			c2.4-2.4,5.4-3.9,8.7-4.4l0.5,3.4C37.6,30.6,35.3,31.8,33.4,33.6z M17.7,38.8c0.9-5.2,3.4-9.9,7.1-13.7c3.9-4,9-6.4,14.5-7.2
			l0.5,3.4c-4.8,0.7-9.1,2.8-12.5,6.2c-3.2,3.2-5.4,7.3-6.1,11.8L17.7,38.8z"/>
	</g>
</g>
<text transform="matrix(1 0 0 1 112.6692 118.9473)" style="font-family:'MyriadPro-Regular'; font-size:12px;">t</text>
</svg>
